<svg id="f98dcc32-701c-4b7b-99b0-0759ae270a14" data-name="white" xmlns="http://www.w3.org/2000/svg" width="400" height="400" viewBox="0 0 400 400">
  <defs>
    <style>
      .b2ef306d-0a7d-4e2f-a3a8-069048391fe7 {
        fill: #fff;
      }
    </style>
  </defs>
  <title>logo-antartide-white</title>
  <path class="b2ef306d-0a7d-4e2f-a3a8-069048391fe7" d="M302.98563,214.82967V152.88158h2.17845c7.55521-.00013,15.11306.12728,22.665-.031,10.669-.22363,19.19964,5.57787,22.69141,16.03336,3.96587,11.87516,3.73724,23.74738-1.60874,35.19126-1.44585,3.095-3.91993,5.7111-5.93722,8.53619a3.92856,3.92856,0,0,0-.816,1.32873q3.97977-1.542,7.95977-3.08362c.62988-.24384,1.2631-.47922,1.89224-.72505,2.701-1.05544,2.70066-1.05637,6.44724-.15128V152.97429h30.129v9.35506q-8.38693-.70564-17.17249-1.44487c-.08119.94741-.15875,1.43609-.15949,1.92488-.00822,5.3563.03969,10.71318-.03415,16.06848-.019,1.37465.45151,1.786,1.75018,1.69632,4.8238-.33319,9.65107-.61579,14.47723-.91382.27608-.01706.5541-.00223.82572-.00223v9.64364c-2.92573-.25943-5.92725-.59048-8.93777-.77147-2.30325-.13845-4.6181-.07558-6.9273-.12627-.87288-.01912-1.16969.36943-1.16729,1.22427.02032,7.21313.0116,14.42636.0116,22.07459q8.78391-.656,17.22374-1.28625c0,2.3203-.00248,4.76334.00207,7.20638.00091.50723.05538,1.01532.03812,1.52139-.078,2.2866.57623,3.96236,3.12541,4.54281.62261.14182,1.04076,1.18126,1.55294,1.808-.73813.36115-1.4753,1.03539-2.2145,1.03766q-28.078.08635-56.15646.04415-162.46515-.00063-324.93031-.01648c-1.15073-.00017-2.80691.5439-3.06632-1.20546-.23863-1.60931,1.43468-1.50474,2.43516-2.01151a2.80885,2.80885,0,0,0,1.28288-1.49079q6.89169-21.549,13.69522-43.12608,4.23051-13.35382,8.44687-26.65571h6.822c1.28079,4.03922,2.60819,8.20427,3.92228,12.37352q7.20667,22.86457,14.41727,45.7279c.22375.70793.07358,1.79579,1.49274,1.49475,1.17338-.24893,1.47683-.79229,1.47444-1.96091q-.05584-27.317-.02188-54.63422c.00007-.66245,0-1.32487,0-2.19422,2.7372,0,5.31427-.05356,7.88527.04745a2.33121,2.33121,0,0,1,1.399,1.01738q14.86992,20.42667,29.69149,40.88853a2.78225,2.78225,0,0,0,1.11525,1.00951V153.006h7.44339v59.16316c1.03371-.15338,1.84014-.24888,2.63725-.39522,4.75829-.87354,9.51022-1.78242,14.27366-2.62662a2.3007,2.3007,0,0,0,2.24532-2.68184c-.0687-14.48988-.03854-28.98025-.03826-43.47046,0-.55521,0-1.11042,0-2.10714-4.779.51332-9.37389,1.00687-13.848,1.48746v-9.38216h39.9666V162.373L140.309,160.92589v40.46395c1.14455-.54957,2.17371-1.03793,3.197-1.53826.35407-.1731.69361-.37593,1.03987-.565,3.42651-1.87141,3.42652-1.87139,6.46555.6165.70411-2.07387,1.40047-4.049,2.04664-6.04047q6.5644-20.231,13.08279-40.47672c.3839-1.19879.88051-1.55327,2.13625-1.41668a49.039,49.039,0,0,0,5.09558.04223c.85952,2.666,1.76713,5.42433,2.63871,8.194q8.13228,25.842,16.23657,51.69272c.32018,1.02277.57962,1.74149,1.93445,1.36621,1.15887-.321,2.32966-.03729,2.32049-2.02711-.08617-18.71845-.04813-37.43747-.046-56.15633.00009-.66456,0-1.32911,0-1.90419.25273-.141.34693-.23955.44107-.2395,7.4404.00357,14.88673-.165,22.31945.07952A13.27954,13.27954,0,0,1,232.136,163.907c1.23944,5.58417.896,11.10965-2.14772,16.16818a14.62963,14.62963,0,0,1-7.79641,6.66537,7.52629,7.52629,0,0,0-.93213.51262c1.84571,3.72622,3.65936,7.399,5.48318,11.06666,1.755,3.52923,3.4833,7.07274,5.317,10.56076a2.68917,2.68917,0,0,0,1.66767,1.34936c5.20036.608,10.41605,1.08515,15.628,1.593a2.13864,2.13864,0,0,0,.551-.11485V160.87744c-4.72777.51912-9.281,1.0191-13.749,1.50968v-9.393h39.9857v9.36992l-13.114-1.44373v42.14176c2.06624-1.96637,4.12851-3.86159,6.11345-5.83464,2.63634-2.62058,5.18655-5.32785,7.82493-7.94635,1.346-1.33577,1.99923-1.242,3.15048.22628a9.82412,9.82412,0,0,0,2.115,2.17737V153.07894h12.78962c0,.62613,0,1.33666,0,2.04722-.00057,17.47847.04174,34.95712-.042,52.4352-.0147,3.07044,2.12878,4.76355,3.7955,6.66C299.43157,214.96715,301.317,214.63193,302.98563,214.82967ZM22.24748,223.29156l.045.31552h361.297c-.59246-.32646-.84926-.504-1.13165-.61827-8.76738-3.547-17.53005-7.10566-26.32159-10.59184a3.36951,3.36951,0,0,0-2.21826.09662c-5.58109,2.10964-11.12315,4.32281-16.70581,6.42837a8.23852,8.23852,0,0,1-3.25623.58358c-11.64227-.65069-23.27976-1.386-34.9203-2.06875a3.4411,3.4411,0,0,1-2.81593-1.52994c-3.93008-5.36229-7.9254-10.6768-11.89925-16.007-1.943-2.60617-3.88825-5.2106-5.72452-7.67109-2.554,2.4267-5.04079,4.69958-7.42554,7.07485-4.41528,4.39771-8.36757,9.31646-14.23744,12.00989-1.6824.772-3.18913,1.92146-4.85579,2.73533a5.72068,5.72068,0,0,1-2.84675.66544c-6.11355-.55381-12.212-1.2724-18.32335-1.85293-3.63792-.34559-7.35425-1.09467-10.92352-.686-8.15752.93407-16.24152,2.49944-24.3653,3.74355-3.32476.50917-6.701,1.34368-10.00871,1.16986-7.812-.41051-15.602-1.28748-23.38671-2.11088a5.5007,5.5007,0,0,1-3.16092-1.55038c-3.48327-3.68-6.85309-7.47107-10.16191-11.30995a1.81422,1.81422,0,0,0-2.67749-.53479q-8.10387,4.36878-16.28072,8.60136a16.78371,16.78371,0,0,1-4.34142,1.75732c-9.11294,1.77626-18.24628,3.45016-27.38721,5.07727a4.94911,4.94911,0,0,1-2.86023-.39039c-4.24695-2.08337-8.4037-4.351-12.65558-6.42372a4.90232,4.90232,0,0,0-3.01492-.36611q-22.86324,5.26488-45.69347,10.67311Q28.11557,221.8904,22.24748,223.29156Zm293.592-10.25564c1.86788,0,3.65422.04088,5.4382-.007,8.0275-.2155,12.58916-3.354,15.26748-10.90989,3.40209-9.59795,3.37915-19.44733,1.35828-29.29922-.81129-3.95511-2.51337-7.60384-5.94487-10.11337-4.90006-3.58364-10.50678-2.89875-16.11909-2.82169Zm-220.18394.5605.32928-.41806L68.787,175.4228l-.41666.28089v33.78989a60.12639,60.12639,0,0,0,8.02633-1.87969c3.86982-1.47028,7.12908-.64,10.48355,1.43664C89.67308,210.7795,92.72076,212.09677,95.65554,213.59642Zm-50.685,1.39258a15.22835,15.22835,0,0,0-.2411-1.58924c-1.03988-3.90748-2.1551-7.79611-3.11775-11.72227-.29885-1.21888-.90774-1.46308-2.01241-1.4523-4.44592.04347-8.89321.06463-13.33834-.00733a1.75609,1.75609,0,0,0-2.06944,1.59407c-1.04466,4.425-2.19155,8.82569-3.26837,13.24323-.45692,1.87444-.83561,3.768-1.31046,5.92865Zm133.87388-1.28624c-1.305-4.53257-2.4763-8.67667-3.72816-12.79627-.09377-.3086-.76129-.6259-1.16484-.62945-4.77977-.04221-9.56055-.0554-14.33946.02168a1.89356,1.89356,0,0,0-1.38955,1.01961c-1.77571,4.94091-1.751,4.95033,1.7455,8.90086a12.61357,12.61357,0,0,0,1.14227,1.23806,2.3113,2.3113,0,0,0,1.12085.62414C167.58378,212.63016,172.941,213.13466,178.84445,213.70276Zm30.50948-54.28385v24.47518c5.29636.36157,7.43266-1.51775,8.87973-5.02982,1.93826-4.7042,1.68632-9.58038.575-14.428a6.4622,6.4622,0,0,0-1.40392-2.78862C215.25207,159.26408,212.3595,159.32,209.35393,159.41891ZM33.406,174.24683l-.42735.01964c-1.9479,6.12588-3.89581,12.25174-5.89275,18.5318H38.99071C37.09936,186.51552,35.2527,180.38118,33.406,174.24683Zm133.902.00589-.41267-.02113c-1.95071,6.13848-3.90143,12.27693-5.882,18.50942h11.87047C170.98653,186.45,169.14728,180.35136,167.308,174.25272Zm50.316,35.27383c-2.762-6.08934-5.36795-11.83476-7.97393-17.5802l-.34617.16108v18.71775Z"/>
  <g>
    <path class="b2ef306d-0a7d-4e2f-a3a8-069048391fe7" d="M322.45169,231.31483h2.1061v7.64662c.29694-.01507.48794.033.60418-.03919,2.24524-1.39543,3.96154-1.27219,5.58388.41773a5.57289,5.57289,0,0,1,.45459,6.72535c-1.34944,1.92231-3.24351,2.3896-5.51679,1.45072-.359-.14834-.86122.06146-1.2983.08809-.60126.0368-1.20355.05683-1.93366.08983ZM329.753,243.081c.00446-1.73312-1.01022-3.11129-2.32894-3.16328a2.81405,2.81405,0,0,0-2.83444,3.07172c-.0036,1.9093.94575,2.97038,2.6422,2.95324C328.88637,245.92591,329.74823,244.94772,329.753,243.081Z"/>
    <path class="b2ef306d-0a7d-4e2f-a3a8-069048391fe7" d="M297.87433,231.6296c2.48112,5.53364,4.77057,10.63981,7.0648,15.75666-2.01425.62423-2.343.59573-2.93825-1.2071-.60036-1.81833-1.63928-2.524-3.48289-2.19348a3.40436,3.40436,0,0,1-1.17853-.00091c-2.01908-.36322-3.34064.32039-3.82515,2.40538-.34877,1.5009-1.42952,1.48029-2.92611,1.13624C292.96929,242.33135,295.31468,237.21425,297.87433,231.6296Zm.00122,5.18377-2.23515,4.93378h4.39976Z"/>
    <path class="b2ef306d-0a7d-4e2f-a3a8-069048391fe7" d="M178.92872,247.65045H176.654c0-1.19749.01419-2.35231-.00471-3.50652a9.45565,9.45565,0,0,0-.156-2.51147,6.51559,6.51559,0,0,0-1.21906-1.71846c-.58925.57983-1.55218,1.083-1.69018,1.75542a25.34221,25.34221,0,0,0-.18018,4.37176c-.01326.49678-.049.993-.07886,1.57511H171.307v-9.69407c.81615.27154,1.477.50793,2.14966.7036a.9766.9766,0,0,0,.56562-.05848c2.33849-.86462,2.33748-.86738,4.30524.597.29217-.20389.60271-.42706.91965-.64074,2.111-1.42314,4.68121-.35339,4.88384,2.17444.17876,2.23031.03741,4.48627.03741,6.86629h-2.16035c0-1.7959.00929-3.57932-.00376-5.36254-.007-.9516.13172-2.10151-1.209-2.21983-1.43034-.1262-1.80021.98555-1.84694,2.11477C178.87448,243.88442,178.92872,245.67746,178.92872,247.65045Z"/>
    <path class="b2ef306d-0a7d-4e2f-a3a8-069048391fe7" d="M111.57831,231.26007h2.20828V247.726c-.70679-.08775-1.37728-.18084-2.0502-.25035a2.34366,2.34366,0,0,0-.98232-.01775c-2.59221.95382-4.30077.53324-5.64274-1.43636a5.85943,5.85943,0,0,1,.51944-6.75565c1.58773-1.62534,3.45788-1.73594,5.94754-.236Zm.24536,11.68733a2.71525,2.71525,0,0,0-2.78976-2.91954,2.87078,2.87078,0,0,0-2.52422,3.03679,2.6717,2.6717,0,1,0,5.314-.11725Z"/>
    <path class="b2ef306d-0a7d-4e2f-a3a8-069048391fe7" d="M308.767,247.65136h-2.223v-9.60148c.85778.18349,1.53817.33014,2.21924.47381.1826.03857.44088.16325.53988.08689,1.63386-1.25992,3.03893-.66713,4.38.57764a10.591,10.591,0,0,1,1.56227-1.03638,2.96592,2.96592,0,0,1,4.23754,2.44643c.16,2.28487.03628,4.58956.03628,6.99424h-2.12637c0-1.65008.08605-3.32183-.03188-4.97909-.07221-1.0147.33511-2.58569-1.333-2.63921-1.62226-.052-1.68817,1.42265-1.74857,2.59192-.08367,1.62026-.021,3.248-.021,5.00172h-2.37894c0-2.11637.07473-4.18661-.05479-6.244-.03074-.48856-.89361-1.38709-1.11811-1.31382a3.12975,3.12975,0,0,0-1.69572,1.30816,5.00135,5.00135,0,0,0-.23549,2.15243C308.74613,244.81024,308.767,246.151,308.767,247.65136Z"/>
    <path class="b2ef306d-0a7d-4e2f-a3a8-069048391fe7" d="M75.78544,243.57121l2.03866-.40976a9.69533,9.69533,0,0,0,1.76343,2.3208,2.29662,2.29662,0,0,0,3.33251-.8892,2.37666,2.37666,0,0,0-.89191-3.354c-.91339-.5465-1.92241-.93069-2.87293-1.41818-2.16649-1.11105-3.0827-3.09972-2.3074-4.96a4.58276,4.58276,0,0,1,5.40911-2.34025,20.1181,20.1181,0,0,1,3.24077,2.06227c-.93938.59246-1.44344.91034-1.94749,1.22825l.01988-.54093a16.6072,16.6072,0,0,0-3.311-.53245,1.82449,1.82449,0,0,0-1.209,1.337,2.41915,2.41915,0,0,0,.98771,1.73626,28.21483,28.21483,0,0,0,3.03761,1.44391c2.00093,1.02482,2.71789,2.55591,2.35985,4.88724a4.59065,4.59065,0,0,1-3.79018,3.79089,4.4919,4.4919,0,0,1-4.994-2.2968C76.34094,245.05138,76.13356,244.41208,75.78544,243.57121Z"/>
    <path class="b2ef306d-0a7d-4e2f-a3a8-069048391fe7" d="M20.44955,244.60016c.45536,2.24047.27679,2.55467-1.75584,3.08911a7.8176,7.8176,0,0,1-8.5974-11.881,7.89986,7.89986,0,0,1,8.58942-3.19158c2.10842.5895,2.22311.79054,1.751,3.06925-4.07911-1.74208-6.38108-1.4665-8.25458.98815a5.8781,5.8781,0,0,0,.26442,7.2063C14.27288,246.1467,16.48855,246.346,20.44955,244.60016Z"/>
    <path class="b2ef306d-0a7d-4e2f-a3a8-069048391fe7" d="M156.53229,235.698c-4.26257-1.72746-6.40107-1.4772-8.284.96948a5.90813,5.90813,0,0,0,.26354,7.20477c1.81544,2.28083,3.87679,2.46667,8.01005.72223.42414,2.31588.25473,2.59118-1.9355,3.14486a7.82636,7.82636,0,0,1-8.34772-12.07413,7.93721,7.93721,0,0,1,8.50551-3.054C156.84983,233.21922,156.92827,233.35455,156.53229,235.698Z"/>
    <path class="b2ef306d-0a7d-4e2f-a3a8-069048391fe7" d="M134.72131,244.30537c.67868.33423,1.16952.5759,1.65407.81453a4.53694,4.53694,0,0,1-5.7718,2.69017c-2.4059-.768-3.63756-3.28487-3.022-6.17525a4.37938,4.37938,0,0,1,5.01707-3.67258c2.56637.30784,3.9929,2.2204,3.84289,5.38451h-6.43584l-.38072.48105c.52271.67184.9117,1.659,1.59621,1.94923C132.61159,246.36677,133.8545,245.77823,134.72131,244.30537Zm-4.91749-2.8286h4.255C133.0008,239.54508,131.63081,239.45691,129.80382,241.47677Z"/>
    <path class="b2ef306d-0a7d-4e2f-a3a8-069048391fe7" d="M31.598,243.40961h-6.325l-.35126.47439c.55564.66107,1.08906,1.84839,1.67158,1.87292a12.98581,12.98581,0,0,0,3.61149-.84265l-.06177-.57148q.8046.4006,1.60757.80048a4.72607,4.72607,0,0,1-6.22743,2.52506c-2.23609-.86433-3.41361-3.78751-2.596-6.44439a4.42032,4.42032,0,0,1,5.2032-3.22635C30.67232,238.46881,31.93746,240.36374,31.598,243.40961Zm-2.18739-1.86024a1.72731,1.72731,0,0,0-2.134-1.49867,7.30858,7.30858,0,0,0-1.97731,1.01845l.26077.48022Z"/>
    <path class="b2ef306d-0a7d-4e2f-a3a8-069048391fe7" d="M392.62968,243.41044h-6.30984l-.36141.44569c.54287.66416.95635,1.62608,1.65574,1.93007,1.42367.61869,2.59609-.14582,3.46876-1.4836.61353.29376,1.1514.55129,1.68481.80672a4.69955,4.69955,0,0,1-5.98474,2.66614c-2.31531-.80862-3.58453-3.57949-2.88072-6.28919a4.43033,4.43033,0,0,1,5.49089-3.4335C391.862,238.60187,393.03527,240.46987,392.62968,243.41044Zm-2.19232-1.85149a1.75673,1.75673,0,0,0-2.22342-1.50768,6.67078,6.67078,0,0,0-1.85545,1.03316l.24019.47452Z"/>
    <path class="b2ef306d-0a7d-4e2f-a3a8-069048391fe7" d="M347.8898,243.45285h-6.41672l-.31245.44379c.57946.662,1.13052,1.84166,1.74447,1.87536a12.65418,12.65418,0,0,0,3.61545-.82948l-.04394-.58144q.78327.40953,1.56289.81713a4.75836,4.75836,0,0,1-6.28968,2.47472c-2.25772-.88036-3.33145-3.804-2.441-6.64655a4.41194,4.41194,0,0,1,5.2002-2.97707C346.95588,238.51006,348.22981,240.42337,347.8898,243.45285Zm-6.34356-2.47625.21091.51537h3.80064l.18289-.5484c-.67647-.305-1.35861-.86207-2.02785-.847A6.552,6.552,0,0,0,341.54624,240.9766Z"/>
    <path class="b2ef306d-0a7d-4e2f-a3a8-069048391fe7" d="M282.93148,243.39875h-6.30526l-.37716.47162c.53343.66354.93729,1.63707,1.62749,1.92562,1.40478.58734,2.61259-.08668,3.47523-1.45651.59135.27517,1.12729.52453,1.6605.77265a4.6245,4.6245,0,0,1-6.01667,2.61294c-2.46131-.90084-3.578-3.64573-2.70677-6.65356a4.44075,4.44075,0,0,1,5.32151-3.03344C282.07526,238.59675,283.34376,240.55644,282.93148,243.39875Zm-2.3683-1.8711.20947-.51165c-.65012-.3329-1.30651-.94209-1.94876-.92756a7.20169,7.20169,0,0,0-2.30154.88308l.21108.55613Z"/>
    <path class="b2ef306d-0a7d-4e2f-a3a8-069048391fe7" d="M229.77647,238.66658c1.21242-.27892,1.9468-.44783,2.85446-.65664v9.389c-1.89241.20133-3.70334.49951-5.52179.55584-1.61018.05-3.21456-1.45271-3.72372-3.18873a5.41765,5.41765,0,0,1,1.63935-5.96161A3.79609,3.79609,0,0,1,229.77647,238.66658Zm.86927,4.42549c.01693-1.85054-1.00371-3.04819-2.6166-3.07028a2.694,2.694,0,0,0-2.60949,2.90112c-.0444,1.89138.94094,3.03869,2.59878,3.026A2.579,2.579,0,0,0,230.64574,243.09207Z"/>
    <path class="b2ef306d-0a7d-4e2f-a3a8-069048391fe7" d="M376.34,237.92528v9.85836c-.7902-.15648-1.48575-.31709-2.18959-.42228a1.80269,1.80269,0,0,0-.86111.07516c-2.62612.97956-4.45964.497-5.74121-1.53724a5.5548,5.5548,0,0,1,.58256-6.58208,3.90827,3.90827,0,0,1,5.39764-.60337C374.58005,238.41884,375.34354,238.20475,376.34,237.92528Zm-2.05211,5.10306c.02127-1.75678-.96609-2.94675-2.49859-3.01126-1.63376-.06876-2.74708,1.19055-2.76752,3.13037a2.63734,2.63734,0,0,0,2.53728,2.80105C373.25426,245.99658,374.265,244.915,374.28787,243.02834Z"/>
    <path class="b2ef306d-0a7d-4e2f-a3a8-069048391fe7" d="M163.69751,247.9886a4.93441,4.93441,0,0,1-4.97126-5.07791,5.07978,5.07978,0,0,1,4.95477-4.97352,5.031,5.031,0,1,1,.01649,10.05143Zm-2.6167-4.81984a2.52624,2.52624,0,0,0,2.8339,2.77173q2.65269-.05661,2.66215-2.95439c.00681-1.92632-1.01857-3.002-2.83388-2.97282C162.01975,240.041,161.06216,241.176,161.08081,243.16876Z"/>
    <path class="b2ef306d-0a7d-4e2f-a3a8-069048391fe7" d="M67.65952,242.95566a4.85611,4.85611,0,0,1-5.11679,5.03847,4.991,4.991,0,0,1-4.99467-5.06659,5.15583,5.15583,0,0,1,5.12043-4.99206A4.8913,4.8913,0,0,1,67.65952,242.95566Zm-2.24063.07293c.00937-1.94932-.99864-3.02142-2.81938-2.99858a2.96181,2.96181,0,0,0,.0948,5.91949C64.47626,245.92406,65.40977,244.92332,65.41889,243.02859Z"/>
    <path class="b2ef306d-0a7d-4e2f-a3a8-069048391fe7" d="M256.01026,247.98691a5.02569,5.02569,0,0,1-5.06363-5.0049,5.08752,5.08752,0,0,1,5.06423-5.049,4.93386,4.93386,0,0,1,5.05652,5.13193A4.79472,4.79472,0,0,1,256.01026,247.98691Zm.10178-2.03919a2.62494,2.62494,0,0,0,2.7394-2.93515,2.66427,2.66427,0,0,0-2.86119-2.98876,2.96575,2.96575,0,0,0,.12179,5.92391Z"/>
    <path class="b2ef306d-0a7d-4e2f-a3a8-069048391fe7" d="M244.75113,238.22948c-2.02548,2.474-3.86515,4.721-5.9362,7.25058h5.45524v2.10662h-9.8305c2.02384-2.48789,3.883-4.77333,5.95523-7.32074h-4.60967v-2.03646Z"/>
    <path class="b2ef306d-0a7d-4e2f-a3a8-069048391fe7" d="M263.52669,237.97492c1.80573.6604,3.37079.24114,4.97622.01251a2.63039,2.63039,0,0,1,2.96778,2.53184c.097,2.29556.0251,4.59835.0251,7.03908h-2.01541c0-1.8533.01113-3.64056-.004-5.42762-.00977-1.15479-.247-2.22623-1.70909-2.18481a1.86113,1.86113,0,0,0-2.02677,2.14359c.04373,1.78863.01053,3.57916.01053,5.48743h-2.22435Z"/>
    <path class="b2ef306d-0a7d-4e2f-a3a8-069048391fe7" d="M206.17058,247.60362h-2.20537c0-1.94073.00826-3.78557-.00306-5.63036-.00685-1.11737-.312-2.07789-1.66452-2.03766a1.82437,1.82437,0,0,0-2.0255,1.9686c-.00014,1.84583,0,3.6917,0,5.6691h-2.21064v-9.58322a20.46139,20.46139,0,0,0,2.15008.58449,2.10523,2.10523,0,0,0,1.01548-.24828c2.62609-1.058,4.60883.0693,4.86194,2.86135.12642,1.39468.06364,2.80675.08029,4.211C206.17712,246.06509,206.17058,246.73173,206.17058,247.60362Z"/>
    <path class="b2ef306d-0a7d-4e2f-a3a8-069048391fe7" d="M36.40952,247.63748H34.3937v-9.4609c.619.0394,1.24537.07318,1.8706.12154.3401.02631.72767.20575,1.0098.09742,3.03987-1.16779,5.01948.0551,5.149,3.29627.078,1.95316.01435,3.912.01435,5.93807h-2.2636c0-1.7911.02406-3.51523-.00856-5.23831-.02134-1.127.04467-2.44639-1.58537-2.46006-1.55447-.013-2.13969,1.04873-2.16367,2.46006C36.38768,244.07261,36.40952,245.75453,36.40952,247.63748Z"/>
    <path class="b2ef306d-0a7d-4e2f-a3a8-069048391fe7" d="M352.80206,247.60919c-.86346.042-1.40818.06843-2.115.10275v-9.71769c.7577.21727,1.37709.44267,2.01626.55744a1.73223,1.73223,0,0,0,.96956-.1711c2.03146-.95105,4.86387-.38448,4.98966,2.74023.07017,1.74411.067,3.4914.0814,5.23736.00314.38284-.05968.76625-.10011,1.244h-2.19116c0-1.87048.02073-3.66047-.00789-5.44968-.01677-1.046-.11283-2.1637-1.50181-2.22A1.87248,1.87248,0,0,0,352.8088,241.99C352.78154,243.83279,352.80206,245.67623,352.80206,247.60919Z"/>
    <path class="b2ef306d-0a7d-4e2f-a3a8-069048391fe7" d="M99.56886,238.20388h2.09579c0,2.40021.1678,4.75426-.0554,7.07055-.16567,1.71942-2.01292,2.79288-3.93716,2.70256-1.99109-.09337-3.65447-1.24452-3.77995-2.95679-.16287-2.22259-.03977-4.46612-.03977-6.789h2.05538c0,1.64429-.01518,3.20508.00811,4.76532.0083.55621-.08464,1.27455.21339,1.6291.47615.56645,1.27138,1.26042,1.87362,1.20975a2.22308,2.22308,0,0,0,1.49449-1.55373C99.6883,242.33883,99.56886,240.36551,99.56886,238.20388Z"/>
    <path class="b2ef306d-0a7d-4e2f-a3a8-069048391fe7" d="M192.87369,238.21676h2.15379c0,2.366.15464,4.66518-.04888,6.93221-.16317,1.81774-1.999,2.94064-4.00616,2.81853-2.15889-.13129-3.66665-1.3799-3.8164-3.32452-.112-1.45444-.04253-2.92292-.05125-4.38517-.00367-.614-.0006-1.228-.0006-2.03142.70129-.03267,1.28869-.06005,2.15763-.10052,0,1.57966-.01092,3.07271.00523,4.56544.00667.616-.13809,1.37387.16042,1.81237a3.51984,3.51984,0,0,0,1.80965,1.388c1.016.268,1.58373-.53122,1.61567-1.47282C192.92106,242.40639,192.87369,240.39,192.87369,238.21676Z"/>
    <path class="b2ef306d-0a7d-4e2f-a3a8-069048391fe7" d="M381.32192,247.6236h-2.0434v-16.28h2.0434Z"/>
    <path class="b2ef306d-0a7d-4e2f-a3a8-069048391fe7" d="M221.14352,240.94216c-2.11668-1.30833-3.65316-1.2615-4.76743.14529a3.31785,3.31785,0,0,0,.20758,4.06309c1.07766,1.11447,2.88178,1.01358,4.53947-.25378.67364,2.21446.29026,2.83624-1.88236,3.05347a4.98153,4.98153,0,0,1-5.2341-2.91772,4.79485,4.79485,0,0,1,.55177-5.08634c1.58364-1.81436,3.89686-2.61579,5.91094-1.661.65586.31094.85442,1.58648,1.26214,2.42083Z"/>
    <path class="b2ef306d-0a7d-4e2f-a3a8-069048391fe7" d="M363.81037,247.61861h-2.26595c0-1.97964.049-3.92627-.03094-5.86754a7.17958,7.17958,0,0,0-.63248-1.65007c-.14554-.45259-.41418-1.248-.25807-1.35591,1.48826-1.02878.59089-2.67943,1.1115-4.02274h2.00231v3.22746l1.66712.33109c.0266.56215.05208,1.10089.0819,1.73027-.5579.11048-1.0292.20381-1.67539.33175Z"/>
    <path class="b2ef306d-0a7d-4e2f-a3a8-069048391fe7" d="M47.47448,247.6331h-2.2144c0-2.00957.04944-3.95381-.03128-5.8926-.02308-.55435-.46256-1.08074-.63828-1.64272-.14181-.45346-.38987-1.24655-.221-1.3659,1.471-1.03981.54134-2.68741,1.09512-4.00457h1.918v3.16477c.61744.15,1.1292.27442,1.72451.41909v1.71941c-.48561.08867-.96136.1756-1.63264.29822Z"/>
    <path class="b2ef306d-0a7d-4e2f-a3a8-069048391fe7" d="M90.53911,247.6H88.27728c0-1.78111.08212-3.46311-.03421-5.13123a14.8801,14.8801,0,0,0-.718-2.516,2.367,2.367,0,0,1-.072-1.15648c.36556-1.31952.80657-2.6181,1.26523-4.07015h1.74658v3.231c.61158.12109,1.08035.21388,1.6495.32655L92.2066,240.01c-.54835.11014-1.02068.205-1.66749.33493Z"/>
    <path class="b2ef306d-0a7d-4e2f-a3a8-069048391fe7" d="M50.727,238.32505H56.8526l-.73973,1.83368c-2.75722-.13872-3.16705.24944-3.19628,2.97943-.01548,1.44663-.00274,2.89356-.00274,4.45125H50.727Z"/>
    <path class="b2ef306d-0a7d-4e2f-a3a8-069048391fe7" d="M116.761,238.224h1.9954v9.39449H116.761Z"/>
    <path class="b2ef306d-0a7d-4e2f-a3a8-069048391fe7" d="M211.029,247.61638h-1.9652V238.223c.64062-.02936,1.22788-.05629,1.9652-.09007Z"/>
    <path class="b2ef306d-0a7d-4e2f-a3a8-069048391fe7" d="M334.49127,238.2185h2.05924v9.367h-2.05924Z"/>
    <path class="b2ef306d-0a7d-4e2f-a3a8-069048391fe7" d="M246.52836,238.12017l1.93076.09428v9.3895h-1.93076Z"/>
    <path class="b2ef306d-0a7d-4e2f-a3a8-069048391fe7" d="M247.41369,232.24416c.71556.90287,1.44418,1.422,1.41356,1.89151-.03343.5123-.75886,1.351-1.20345,1.36457a1.87691,1.87691,0,0,1-1.39271-1.20607C246.13906,233.83625,246.81018,233.22492,247.41369,232.24416Z"/>
    <path class="b2ef306d-0a7d-4e2f-a3a8-069048391fe7" d="M212.18786,234.24655c-1.00627.6322-1.59473,1.29652-2.09634,1.23635-.5288-.06335-.97464-.81849-1.45673-1.27137.49446-.44206.95843-1.1846,1.49229-1.23882C210.62805,232.92183,211.20288,233.59875,212.18786,234.24655Z"/>
    <path class="b2ef306d-0a7d-4e2f-a3a8-069048391fe7" d="M117.83528,232.248c.624.94693,1.30134,1.5242,1.23785,2.00326a1.28422,1.28422,0,0,1-2.56728-.07475C116.46265,233.702,117.16735,233.15946,117.83528,232.248Z"/>
    <path class="b2ef306d-0a7d-4e2f-a3a8-069048391fe7" d="M335.44838,232.25688c.67892.89923,1.38079,1.42339,1.351,1.90212-.03048.49087-.77234,1.30011-1.21074,1.30532a1.82451,1.82451,0,0,1-1.35557-1.19191C334.16208,233.79686,334.83479,233.21017,335.44838,232.25688Z"/>
  </g>
</svg>
