<svg id="ff46a27d-96e7-4156-9407-882d1fb100a6" data-name="white" xmlns="http://www.w3.org/2000/svg" width="400" height="400" viewBox="0 0 400 400">
  <defs>
    <style>
      .f45a5720-1e92-43b2-8044-c9cc6fd3712c {
        fill: none;
      }

      .abce51da-0055-4bbe-a6e1-eeb4357f5837, .b684a899-a83e-4778-8c57-0a2cfc4d7191 {
        fill: #fff;
      }

      .b684a899-a83e-4778-8c57-0a2cfc4d7191 {
        fill-rule: evenodd;
      }
    </style>
  </defs>
  <title>logo-fbk-white</title>
  <rect class="f45a5720-1e92-43b2-8044-c9cc6fd3712c" width="400" height="400"/>
  <g>
    <g id="f4f924e4-d984-4e69-a3f2-1ad151fb6437" data-name="Group 321">
      <path id="ed669114-5211-45f4-9333-0fa0ddd6bff8" data-name="Path 833" class="b684a899-a83e-4778-8c57-0a2cfc4d7191" d="M81.94723,300.89459h7.88909a7.1853,7.1853,0,0,0,8.00254-7.213,5.85874,5.85874,0,0,0-4.87872-6.1604v-.11634a5.67212,5.67212,0,0,0,4.29622-5.92588c0-4.41717-2.43561-6.39862-7.77183-6.39862H81.94711Zm4.64038-11.512h2.43561a3.9558,3.9558,0,1,1,.3549,7.90363c-.08172.0037-.16343.00554-.24526.0037H86.5838Zm0-10.81579H88.906a3.35465,3.35465,0,0,1,3.71,3.48647,3.52848,3.52848,0,0,1-3.20728,3.82255,3.35819,3.35819,0,0,1-.3856.01292H86.58749Z"/>
    </g>
    <g id="a9f9efd7-03fa-4893-9032-373d353738a1" data-name="Group 323">
      <path id="bd4197ed-dea4-4ce2-9b05-aac0fd14f24a" data-name="Path 835" class="b684a899-a83e-4778-8c57-0a2cfc4d7191" d="M105.84521,286.35966h0v-7.66172h1.97418c2.6662,0,4.16014.81252,4.16014,3.721a3.72515,3.72515,0,0,1-4.16014,3.95182Zm-4.75764,14.53308h4.75764V289.84243h1.04763a3.35807,3.35807,0,0,1,3.59287,2.67763l2.54906,8.37268h4.98074l-3.366-9.76505c-.80929-2.4468-1.8531-2.91216-2.77966-3.0248v-.11634a5.77493,5.77493,0,0,0,4.99217-6.05145c0-4.76988-3.13144-6.86028-7.66218-6.86028h-8.11981Z"/>
    </g>
    <g id="ba316adf-6b80-4401-bacb-8c921a090581" data-name="Group 325">
      <path id="e789ecff-1c5f-4b1a-852f-ebce0515baa9" data-name="Path 837" class="abce51da-0055-4bbe-a6e1-eeb4357f5837" d="M120.58338,275.08221h0v16.738c0,6.86028,3.82729,9.53422,8.69839,9.53422a8.32026,8.32026,0,0,0,8.81564-9.53422v-16.738h-4.75765v16.738c0,4.30822-1.27453,5.70243-4.058,5.70243s-4.06562-1.39606-4.06562-5.70243v-16.738Z"/>
    </g>
    <g id="f3eac8ea-aead-4d94-b2de-ee79b6d09877" data-name="Group 327">
      <path id="e7185b04-b6ca-4019-819b-363ef6a9ef1f" data-name="Path 839" class="abce51da-0055-4bbe-a6e1-eeb4357f5837" d="M142.15933,300.89459h4.29622v-20.1081l8.58873,20.1081h5.67289V275.08221h-4.28871v20.34262h-.11726l-8.58493-20.34262h-5.57075Z"/>
    </g>
    <g id="fd1e2f4f-f3ea-4618-8cb5-c1b3064495a9" data-name="Group 329">
      <path id="ec0a4f13-82a3-4229-ab0d-d5cce3353992" data-name="Path 841" class="b684a899-a83e-4778-8c57-0a2cfc4d7191" d="M164.32505,287.98655h0c0,9.30339,4.8711,13.3697,10.21124,13.3697,5.45729,0,10.32839-4.06631,10.32839-13.3697s-4.8711-13.23674-10.32839-13.23674C169.19626,274.7295,164.32505,278.68686,164.32505,287.98655Zm4.8711,0h0c0-7.0948,2.4318-9.64686,5.33253-9.64686,3.02549,0,5.45729,2.55206,5.45729,9.64686s-2.44311,9.64686-5.45729,9.64686c-2.89693,0-5.33242-2.54836-5.33242-9.64686Z"/>
    </g>
    <g id="bde48111-445f-4dfe-bc86-d81e868968db" data-name="Group 331">
      <path id="b3a3242e-ed1a-4e88-be58-38d1bef02fc2" data-name="Path 843" class="abce51da-0055-4bbe-a6e1-eeb4357f5837" d="M197.73844,300.89459h4.754v-12.1029h.12488l7.65087,12.1029h5.80516l-9.51529-13.6153,8.81933-12.20816h-5.4536l-7.3067,10.934h-.12488v-10.934h-4.754Z"/>
    </g>
    <g id="a20f3d0f-d719-4080-97fa-54c9e8d7938d" data-name="Group 333">
      <path id="ad1fb564-04f7-48dd-b616-edaa8edb7378" data-name="Path 845" class="abce51da-0055-4bbe-a6e1-eeb4357f5837" d="M218.5089,300.89459h13.92138v-3.721h-9.17112v-7.6728h8.35052v-3.721h-8.35052v-6.85658h8.81934v-3.83917H218.50521Z"/>
    </g>
    <g id="f58682d9-64b0-460e-ba21-05e4d38dc40d" data-name="Group 335">
      <path id="b1bf695b-844b-4d41-8395-9a42c5ce4875" data-name="Path 847" class="abce51da-0055-4bbe-a6e1-eeb4357f5837" d="M234.97911,300.19471h0a12.37651,12.37651,0,0,0,5.80146,1.16154,7.70369,7.70369,0,0,0,8.69838-7.791,7.18682,7.18682,0,0,0-4.53835-6.97847l-2.78359-1.5124c-1.388-.81252-2.64739-1.62689-2.64739-3.47907s1.15738-3.0248,3.48323-3.0248a12.18037,12.18037,0,0,1,4.86729,1.05074l.23452-3.95551a16.217,16.217,0,0,0-5.33633-.93071,7.29535,7.29535,0,0,0-3.95967,13.83874l2.44311,1.27419c2.21251,1.28526,3.36966,2.09963,3.36966,3.95551a3.58949,3.58949,0,0,1-3.94466,3.721,10.43334,10.43334,0,0,1-5.45729-1.62689Z"/>
    </g>
    <g id="bf4a5422-c02f-4226-a57b-28eae99c6d86" data-name="Group 337">
      <path id="a10684fe-1dab-4231-81ea-f0ca4024ce20" data-name="Path 849" class="abce51da-0055-4bbe-a6e1-eeb4357f5837" d="M251.5742,300.19471h0a12.35219,12.35219,0,0,0,5.80146,1.16154,7.64313,7.64313,0,0,0,8.69838-7.791,7.18685,7.18685,0,0,0-4.53835-6.97847l-2.78728-1.5124c-1.388-.81252-2.68133-1.62689-2.68133-3.47907s1.16108-3.0248,3.60419-3.0248a11.99674,11.99674,0,0,1,4.76134,1.05074l.23452-3.95551a16.09628,16.09628,0,0,0-5.33241-.93071,7.29153,7.29153,0,0,0-3.956,13.83874l2.43941,1.27419c2.21251,1.28526,3.37728,2.09963,3.37728,3.95551a3.60142,3.60142,0,0,1-3.45853,3.7376,3.84,3.84,0,0,1-.50483-.01662,10.40239,10.40239,0,0,1-5.43836-1.62689Z"/>
    </g>
    <g id="b8116ee4-4a58-453f-bd00-b2eec94cb35e" data-name="Group 339">
      <path id="fc8fc780-9e7c-46dd-8dbc-51b12e281e83" data-name="Path 851" class="abce51da-0055-4bbe-a6e1-eeb4357f5837" d="M268.85739,300.89459h13.23674v-3.721h-8.4754V275.08406h-4.75Z"/>
    </g>
    <g id="a68058b2-9fd8-4b27-b518-65eeb37d8555" data-name="Group 341">
      <path id="e7d5a913-9b27-4c68-9719-971ee62b90d0" data-name="Path 853" class="abce51da-0055-4bbe-a6e1-eeb4357f5837" d="M284.76438,300.89459h13.91745v-3.721h-9.175v-7.6728h8.24457v-3.721h-8.24457v-6.85658h8.81564v-3.83917h-13.558Z"/>
    </g>
    <g id="e0b9af8b-de8e-4cd3-9265-65dd433818c5" data-name="Group 343">
      <path id="accf8725-a4c3-4a6b-8bff-0aaef2350525" data-name="Path 855" class="b684a899-a83e-4778-8c57-0a2cfc4d7191" d="M305.86366,286.35966h0v-7.66172h1.84941c2.68133,0,4.30014.81252,4.30014,3.721a3.78324,3.78324,0,0,1-3.57,3.98321,3.86134,3.86134,0,0,1-.73012-.03139Zm-4.74633,14.53308h4.74633V289.84243h1.05143a3.42617,3.42617,0,0,1,3.58526,2.67763l2.55668,8.37268h4.99586l-3.37728-9.76505c-.798-2.4468-1.85311-2.91216-2.772-3.0248v-.11634a5.87729,5.87729,0,0,0,4.98824-6.05145c0-4.76988-3.14275-6.86028-7.77944-6.86028h-7.98743Z"/>
    </g>
    <g id="a0b7be2f-d8e5-471c-9f1c-32afdf71cd5e" data-name="Group 345">
      <path id="eee833d9-3bd7-4684-abf9-59a97aaa163a" data-name="Path 857" class="abce51da-0055-4bbe-a6e1-eeb4357f5837" d="M81.94723,269.85067h4.75383V258.57691h7.88909v-3.721H86.70106v-6.98216h8.23707v-3.83548H81.94723Z"/>
    </g>
    <g id="ec275424-84aa-4a25-8d56-fd0e6a67127d" data-name="Group 347">
      <path id="bf8b2e14-ea50-4ba9-8833-9ed60c81bec1" data-name="Path 859" class="b684a899-a83e-4778-8c57-0a2cfc4d7191" d="M97.95612,256.93894h0c0,9.30339,4.99217,13.23674,10.32839,13.23674s10.21125-3.95182,10.21125-13.23674-4.86729-13.23674-10.21125-13.23674S97.95612,247.64294,97.95612,256.93894Zm4.87872,0h0c0-7.09111,2.4393-9.64686,5.45348-9.64686s5.33634,2.55206,5.33634,9.64686-2.31835,9.65979-5.34384,9.65979S102.83484,264.03005,102.83484,256.93894Z"/>
    </g>
    <g id="b8a60ebd-8e48-40aa-b7b4-203f5d4693d7" data-name="Group 349">
      <path id="a6b661e5-39e4-4a9e-a360-6d6eb507602e" data-name="Path 861" class="abce51da-0055-4bbe-a6e1-eeb4357f5837" d="M121.85411,269.85067h4.17906V249.73149h.11346l8.58493,20.11918h5.57074V244.03829h-4.29252V264.272l-8.58124-20.23367H121.8578Z"/>
    </g>
    <g id="e0f48f51-436c-47fa-8c84-a779548c0f0f" data-name="Group 351">
      <path id="a4258793-e585-45c9-adb8-6ac92129d523" data-name="Path 863" class="b684a899-a83e-4778-8c57-0a2cfc4d7191" d="M148.42591,247.62817h1.51275c5.33634,0,7.77564,3.60464,7.77564,9.296s-2.4393,9.30339-7.77564,9.30339h-1.51275Zm-4.76145,22.20773h6.73563c7.18564,0,12.29887-4.18265,12.29887-12.908,0-8.48717-4.29621-12.90434-12.29887-12.90434h-6.73563Z"/>
    </g>
    <g id="ee69ad3a-f4a3-4642-bb6d-874e429208a8" data-name="Group 353">
      <path id="ee3261c9-9d64-4363-9745-d30b986ea019" data-name="Path 865" class="b684a899-a83e-4778-8c57-0a2cfc4d7191" d="M181.14335,269.847h4.87872l-8.35433-25.81238h-5.10562L163.86373,269.847h4.75765l1.85311-6.16779h8.82326Zm-9.62874-9.765h0l3.48311-12.1029h.11726l3.2449,12.1029Z"/>
    </g>
    <g id="bdc20fef-e839-43fd-97d6-c496e151d353" data-name="Group 355">
      <path id="ba20bc81-24e1-41a1-b3d5-039414fb6efb" data-name="Path 867" class="abce51da-0055-4bbe-a6e1-eeb4357f5837" d="M188.21934,269.85067h15.88413v-3.721H193.66163l10.21124-18.1525v-3.94812h-15.317v3.83548H198.419l-10.21124,17.9032Z"/>
    </g>
    <g id="e7eed527-11a5-4bc7-a888-a16da1aa0f40" data-name="Group 357">
      <path id="f9cb60bc-acf4-4021-98ef-e2187d1eab1a" data-name="Path 869" class="abce51da-0055-4bbe-a6e1-eeb4357f5837" d="M207.01921,244.04014h4.76133v25.81238h-4.76133Z"/>
    </g>
    <g id="e50e443b-79f4-427a-81e6-7201a2f2833c" data-name="Group 359">
      <path id="b77a3c46-5ff5-44a0-863c-f6ba749ae0b5" data-name="Path 871" class="b684a899-a83e-4778-8c57-0a2cfc4d7191" d="M214.81389,256.93894h0c0,9.30339,4.86729,13.23674,10.21124,13.23674s10.3285-3.95182,10.3285-13.23674-4.99216-13.23674-10.3285-13.23674S214.81389,247.64294,214.81389,256.93894Zm4.86729,0h0c0-7.09111,2.32215-9.64686,5.33633-9.64686s5.4536,2.55206,5.4536,9.64686-2.43941,9.65056-5.4536,9.65056-5.35526-2.55945-5.35526-9.65056Z"/>
    </g>
    <g id="a8103a95-3f4b-4777-af8e-d1b41cbf3e78" data-name="Group 361">
      <path id="fa78b95c-8c20-48a8-a0f2-cb90cc46b9d1" data-name="Path 873" class="abce51da-0055-4bbe-a6e1-eeb4357f5837" d="M238.23151,269.85067h4.29622V249.73149l8.58112,20.11918h5.58609V244.03829H252.3948V264.272l-8.585-20.23367h-5.56324Z"/>
    </g>
    <g id="ac8dab0f-1e29-43fc-954e-348d66bdef03" data-name="Group 363">
      <path id="ec13cb11-04ed-4acd-9785-5d38476ff528" data-name="Path 875" class="abce51da-0055-4bbe-a6e1-eeb4357f5837" d="M259.92472,269.85067h13.91746v-3.721h-9.15612v-7.67649h8.35052V254.7359h-8.35052v-6.86028h8.80064v-3.83548H259.91341Z"/>
    </g>
    <g id="a2a8a78e-3b00-44d1-8a87-299b75f6286b" data-name="Group 365">
      <path id="fc8537ac-dcd4-4a02-8e2e-c9a692e093ab" data-name="Path 877" class="b684a899-a83e-4778-8c57-0a2cfc4d7191" d="M81.94723,150.323h61.71723v20.80058H81.94723Zm0-51.75218h61.71723v20.59931H81.94723Zm82.37793,103.72594h0v20.688H189.959a36.33273,36.33273,0,1,0,.52653-72.66356c-.25242-.00185-.50483-.00185-.75724.00185H164.32136v20.80058H189.9553a15.58567,15.58567,0,0,1,0,31.17134Zm72.15908-51.97561h0L288.00535,98.569h29.45742l-61.8383,62.09522,61.8383,62.31866H288.00535l-51.52111-51.85743Z"/>
    </g>
  </g>
</svg>
