<svg id="f3fe3855-be7a-4730-8736-08af82f95ef3" data-name="white" xmlns="http://www.w3.org/2000/svg" width="400" height="400" viewBox="0 0 400 400">
  <defs>
    <style>
      .bc7c9143-bbbe-415b-9fd8-c92deea96ed9, .bf7ec42d-7618-4453-8a16-b790e0444abc {
        fill: #fff;
      }

      .bc7c9143-bbbe-415b-9fd8-c92deea96ed9 {
        stroke: #fff;
        stroke-miterlimit: 10;
      }
    </style>
  </defs>
  <title>logo-kaleidoscopio2-white</title>
  <path class="bc7c9143-bbbe-415b-9fd8-c92deea96ed9" d="M22.49069,244.4188H24.5094v38.72254l.19573.03493a14.94569,14.94569,0,0,1,.47808-1.47561c1.026-2.34244,2.03427-4.69407,3.12649-7.00575,2.23265-4.72537,4.51041-9.42945,6.77821-14.13815q3.10606-6.4492,6.22983-12.88987a25.99853,25.99853,0,0,0,1.16238-2.45915,1.03411,1.03411,0,0,1,1.25724-.79031c.39629.04254.80086.00787,1.32056.00787-.77729,1.6677-1.5141,3.25667-2.25772,4.84244q-2.98914,6.37426-5.98381,12.74594c-1.03269,2.19585-2.06279,4.39308-3.11942,6.57742a2.30942,2.30942,0,0,0-.15195,1.81878q5.266,17.78564,10.46019,35.59255c.32318,1.1019.65915,2.20006,1.02713,3.42646a12.76147,12.76147,0,0,1-1.73463-.02683c-.1913-.0274-.42567-.337-.49288-.56193q-2.16117-7.23143-4.28391-14.47435-3.19741-10.86133-6.39134-21.72368c-.04236-.14388-.11932-.27757-.249-.57271-.65349,1.33932-1.24717,2.55217-1.83749,3.76665-1.7138,3.52583-3.43842,7.04652-5.12514,10.58527a3.8933,3.8933,0,0,0-.38808,1.60327c-.02571,6.80028-.01693,13.6007-.01694,20.40109v1.00447H22.49069Z"/>
  <path class="bc7c9143-bbbe-415b-9fd8-c92deea96ed9" d="M149.41479,244.54759c4.08919,0,8.124-.152,12.14143.04678,3.37846.16713,5.6708,2.27677,7.28338,5.11613a15.4052,15.4052,0,0,1,1.87306,7.64612c.03859,6.66548.02068,13.3313.0228,19.997q.0029,9.15194.00056,18.30386a17.31606,17.31606,0,0,1-1.63922,7.95825,9.45288,9.45288,0,0,1-5.48645,5.1164,11.84313,11.84313,0,0,1-3.33084.66026c-3.598.0826-7.19917.03077-10.86472.03077Zm1.94,62.59236h.93878c2.36473,0,4.72953.01249,7.09413-.005a9.47053,9.47053,0,0,0,3.8238-.65322,8.03222,8.03222,0,0,0,3.43042-2.847,13.237,13.237,0,0,0,2.141-7.84926q.02124-18.864.0018-37.72811a14.38487,14.38487,0,0,0-1.53992-6.91146,7.75946,7.75946,0,0,0-5.37222-4.218,20.2258,20.2258,0,0,0-3.579-.35147c-1.987-.05506-3.97795.0273-5.96451-.035-.838-.02629-1.03543.253-1.03464,1.04932q.0287,29.30374.01667,58.60753C151.31107,306.48464,151.337,306.771,151.35479,307.14Z"/>
  <path class="bc7c9143-bbbe-415b-9fd8-c92deea96ed9" d="M182.15054,276.84116c0-6.74626-.03372-13.49276.01652-20.23864a14.4498,14.4498,0,0,1,2.11931-7.64588,8.19944,8.19944,0,0,1,3.8682-3.63122,12.54139,12.54139,0,0,1,4.11055-1.11083,9.41543,9.41543,0,0,1,5.98755,1.77762c3.07946,2.31452,4.26862,5.54846,4.72859,9.16286a30.8965,30.8965,0,0,1,.17108,3.86114q.01773,18.30471.00743,36.60946a19.17329,19.17329,0,0,1-1.12565,7.10811,10.12372,10.12372,0,0,1-5.478,6.07061,9.98755,9.98755,0,0,1-7.36622.24006c-3.26792-1.13929-5.16224-3.74031-6.21965-6.97728a20.83854,20.83854,0,0,1-.87124-6.51806q-.00976-9.354-.00229-18.70792Zm1.947.11588-.04054,0c0,6.20805-.03941,12.41652.02606,18.62389a22.38044,22.38044,0,0,0,.58,5.01278c.70459,2.89876,2.30922,5.34486,5.25089,6.23551,4.23339,1.28176,7.7755-.04146,9.85344-4.00437a14.827,14.827,0,0,0,1.44535-7.01983q.00915-7.73991.002-15.47983,0-11.12612-.00219-22.25225a15.35592,15.35592,0,0,0-1.31394-6.81038,7.79759,7.79759,0,0,0-7.19488-4.77629,8.77665,8.77665,0,0,0-2.56654.4385,7.06249,7.06249,0,0,0-3.88665,2.84519,11.89188,11.89188,0,0,0-2.13785,6.9513C184.06835,263.46627,184.09756,270.21175,184.09756,276.957Z"/>
  <path class="bc7c9143-bbbe-415b-9fd8-c92deea96ed9" d="M277.48974,276.84169c0-6.74626-.03365-13.49276.01652-20.23865a14.45175,14.45175,0,0,1,2.1191-7.646,8.20019,8.20019,0,0,1,3.868-3.63139,12.54,12.54,0,0,1,4.11051-1.1111,9.41537,9.41537,0,0,1,5.98761,1.77731c3.07974,2.31423,4.26883,5.54829,4.729,9.16264a30.879,30.879,0,0,1,.17111,3.86113q.01774,18.30471.00742,36.60946a19.17667,19.17667,0,0,1-1.12547,7.10815,10.12376,10.12376,0,0,1-5.47772,6.07093,9.98693,9.98693,0,0,1-7.3662.24036c-3.26788-1.13919-5.16254-3.74-6.22-6.97691a20.83671,20.83671,0,0,1-.87138-6.518q-.00972-9.354-.00227-18.70793Zm1.94664.0565-.0402,0c0,6.208-.03911,12.41648.02588,18.62384a23.24,23.24,0,0,0,.57348,5.01381c.68792,2.94129,2.30692,5.3964,5.27829,6.30018,4.16232,1.266,7.823-.05079,9.86689-4.10461A15.15192,15.15192,0,0,0,296.55,295.783q.01791-8.50578.00392-17.01162,0-10.31986-.00106-20.63972a15.456,15.456,0,0,0-1.32221-6.88941,7.79523,7.79523,0,0,0-7.12913-4.755,8.84461,8.84461,0,0,0-2.569.42053,7.07869,7.07869,0,0,0-3.95012,2.88172,11.87918,11.87918,0,0,0-2.13081,6.95362C279.40688,263.4612,279.43638,270.17979,279.43638,276.89819Z"/>
  <path class="bc7c9143-bbbe-415b-9fd8-c92deea96ed9" d="M355.56787,276.8414c0-6.74628-.03367-13.4928.01654-20.23871a14.4502,14.4502,0,0,1,2.1192-7.64592,8.19949,8.19949,0,0,1,3.86814-3.63124,12.54091,12.54091,0,0,1,4.11054-1.11093,9.41547,9.41547,0,0,1,5.98757,1.77751c3.07959,2.31445,4.2686,5.54844,4.72869,9.1628a30.89054,30.89054,0,0,1,.17112,3.86113q.01773,18.30471.00741,36.60947a19.17427,19.17427,0,0,1-1.12561,7.10811,10.12388,10.12388,0,0,1-5.47789,6.07071,9.98732,9.98732,0,0,1-7.36622.24017c-3.26792-1.1392-5.16231-3.74017-6.21974-6.97712a20.83859,20.83859,0,0,1-.87134-6.518q-.00969-9.354-.00225-18.70793Zm1.94626-.0028h-.03982c0,6.23491-.03907,12.47024.026,18.70446a22.99262,22.99262,0,0,0,.57568,5.0135c.68714,2.90744,2.28866,5.34946,5.21945,6.262,4.14348,1.29019,7.81938.02169,9.90285-4.033a15.06,15.06,0,0,0,1.43143-7.02369q.01075-9.15079.00244-18.30161.00006-9.67487-.00087-19.34972a15.381,15.381,0,0,0-1.32946-6.88783,7.78227,7.78227,0,0,0-7.14306-4.73489,9.09465,9.09465,0,0,0-2.645.45024,6.96585,6.96585,0,0,0-3.83159,2.79926,11.99427,11.99427,0,0,0-2.15515,7.02672C357.48912,263.45543,357.51413,270.14708,357.51413,276.8386Z"/>
  <path class="bc7c9143-bbbe-415b-9fd8-c92deea96ed9" d="M75.26727,309.3951H73.32084c-.54706-2.949-1.09011-5.87308-1.63174-8.79749-.2245-1.21217-.42165-2.43034-.691-3.6324a.84056.84056,0,0,0-.593-.52937c-5.59046-.02115-11.181-.00753-16.77162.00147a1.08123,1.08123,0,0,0-.1832.06615L51.05165,309.401H49.0783c.08225-.5307.14536-1.02328.2361-1.51071q2.56125-13.75986,5.129-27.51851,3.09481-16.57087,6.19721-33.14033a18.63291,18.63291,0,0,0,.37885-2.05314c.04714-.65448.33834-.82012.92449-.76.36983.03791.74669.00707,1.19817.00707Q69.20692,276.92223,75.26727,309.3951Zm-12.99391-61.208c-2.37435,15.35179-5.66758,30.54222-8.30591,45.86241H70.44621c-.18682-.99275-.3601-1.91257-.533-2.83247-1.32243-7.03642-2.69112-14.06455-3.95434-21.11159C64.6531,262.821,62.89085,255.61139,62.27336,248.1871Z"/>
  <path class="bc7c9143-bbbe-415b-9fd8-c92deea96ed9" d="M311.80453,288.45225v20.93842h-1.87976v-64.858c.06274-.03546.10717-.08267.15116-.08229,3.92135.03379,7.84951-.05729,11.76179.15028,2.97829.158,5.12415,1.94085,6.736,4.37158a14.47862,14.47862,0,0,1,2.30472,7.99789q.10707,9.39336.0016,18.78868a14.60627,14.60627,0,0,1-2.58606,8.47434,9.84784,9.84784,0,0,1-3.42438,3.0045,11.16686,11.16686,0,0,1-5.68994,1.22522C316.76616,288.418,314.35122,288.45225,311.80453,288.45225Zm.01672-22.07994c0,6.3143.00957,12.62864-.01394,18.94285-.00252.67255.19322.86687.86161.85445,2.14879-.03993,4.30044.03505,6.44772-.03487a19.85462,19.85462,0,0,0,3.45157-.447,7.19186,7.19186,0,0,0,4.64948-3.69609,13.77139,13.77139,0,0,0,1.75542-7.24947q.02443-8.34287.00085-16.68585a14.61808,14.61808,0,0,0-1.53788-6.91217,7.7592,7.7592,0,0,0-4.83006-4.08209,17.802,17.802,0,0,0-4.0435-.4814c-1.87773-.07671-3.76092-.0196-5.64178-.01914-1.09691.00027-1.09908.00083-1.09921,1.10969Q311.82044,257.02178,311.82125,266.37231Z"/>
  <path class="bc7c9143-bbbe-415b-9fd8-c92deea96ed9" d="M213.18071,290.86942h1.92978c0,1.73209-.00109,3.41907.00025,5.106a14.436,14.436,0,0,0,1.07591,5.89146,8.53,8.53,0,0,0,4.40494,4.68624,8.67753,8.67753,0,0,0,6.49472.24019,8.37765,8.37765,0,0,0,5.3259-6.024,13.49509,13.49509,0,0,0-.69845-10.182c-.89434-1.74143-2.04489-3.35321-3.10632-5.00648-1.7237-2.68475-3.4716-5.35393-5.20479-8.0326-1.94886-3.012-3.83466-6.06681-5.85423-9.03053-2.238-3.28424-3.93686-6.73345-3.98225-10.80563-.039-3.50143.57552-6.84944,2.74217-9.70209a9.242,9.242,0,0,1,6.20218-3.65569,10.96529,10.96529,0,0,1,3.71138.13239,9.052,9.052,0,0,1,6.17437,4.46137,15.34991,15.34991,0,0,1,2.1663,7.63836c.08464,1.87149.01629,3.74989.01629,5.67528H232.666c0-.32515.00413-.66027-.00067-.99526a33.83583,33.83583,0,0,0-.44219-7.46139,9.37645,9.37645,0,0,0-3.458-5.75782,7.4213,7.4213,0,0,0-6.69607-1.27354c-4.349,1.27321-5.92479,4.55344-6.44061,8.59205a14.38912,14.38912,0,0,0,2.61327,10.25116c2.13034,3.111,4.07168,6.351,6.11266,9.52359q3.344,5.198,6.721,10.37476c1.56023,2.39144,3.16759,4.74333,3.62025,7.66932.65188,4.21384.2664,8.25469-2.0673,11.91153a9.52029,9.52029,0,0,1-4.29505,3.64331,10.94,10.94,0,0,1-7.30781.44511,9.45955,9.45955,0,0,1-5.8434-4.69307,15.6904,15.6904,0,0,1-1.99165-7.61157C213.14139,294.89735,213.18071,292.9126,213.18071,290.86942Z"/>
  <path class="bc7c9143-bbbe-415b-9fd8-c92deea96ed9" d="M266.04722,262.31h-1.91828c0-.338.00335-.67555-.00055-1.01306a32.98753,32.98753,0,0,0-.46987-7.61871,9.2432,9.2432,0,0,0-3.45923-5.66827,7.53631,7.53631,0,0,0-6.7096-1.2315c-3.56835,1.02861-5.26534,3.59654-6.04785,6.92887a19.94868,19.94868,0,0,0-.45125,4.47424c-.034,12.49877-.01876,24.99766-.01973,37.49652a15.0185,15.0185,0,0,0,1.42542,7.0992c2.093,4.02769,5.72046,5.333,9.91039,4.04613,2.90862-.89331,4.49634-3.30644,5.20128-6.18077a28.25074,28.25074,0,0,0,.60091-4.776c.09576-1.38979.01993-2.7914.01993-4.254h1.90415c0,1.95343.07515,3.90835-.01821,5.85519a15.04865,15.04865,0,0,1-2.204,7.54274,9.69078,9.69078,0,0,1-4.19371,3.73911,10.04829,10.04829,0,0,1-7.05689.41912,9.26964,9.26964,0,0,1-5.614-4.72841,17.32924,17.32924,0,0,1-1.93114-8.61319q-.01367-18.90955.00079-37.81912a17.3462,17.3462,0,0,1,1.70147-8.18579,8.9298,8.9298,0,0,1,4.46743-4.54488,11.38911,11.38911,0,0,1,4.03861-1.07047,9.40863,9.40863,0,0,1,7.497,3.18929,14.73115,14.73115,0,0,1,3.30845,9.24868C266.13209,258.51338,266.04722,260.39227,266.04722,262.31Z"/>
  <path class="bc7c9143-bbbe-415b-9fd8-c92deea96ed9" d="M109.56863,244.46249h16.63849v2.09892h-.97293c-4.30148,0-8.60306.01461-12.90435-.01484-.68478-.00469-.87644.22089-.87575.87536q.02,18.99372.012,37.98746c0,.18355.0277.36711.04847.62533h11.42718v2.34769h-11.4174v18.73281h14.66833v2.2588h-16.624Z"/>
  <path class="bc7c9143-bbbe-415b-9fd8-c92deea96ed9" d="M100.35791,307.13025v2.25782H84.40055v-64.9107h1.87417v62.65288Z"/>
  <path class="bc7c9143-bbbe-415b-9fd8-c92deea96ed9" d="M135.79437,244.44748h1.81888v64.91984h-1.81888Z"/>
  <path class="bc7c9143-bbbe-415b-9fd8-c92deea96ed9" d="M341.95757,244.44565h1.8225v64.92347h-1.8225Z"/>
  <g>
    <path class="bf7ec42d-7618-4453-8a16-b790e0444abc" d="M30.43528,328.74577a2.12727,2.12727,0,0,0-2.16554-2.3248c-2.0873,0-2.27172,1.79669-2.27172,2.80052v9.958a2.19934,2.19934,0,0,0,2.139,2.40374c1.03108,0,2.29827-.44917,2.29827-2.58886v-.5812h2.00766v.68668c0,2.642-1.2155,4.41141-4.38417,4.41141a3.75884,3.75884,0,0,1-4.04186-4.06772V328.50826a3.916,3.916,0,0,1,4.14665-4.01532c2.29826,0,4.19974,1.10931,4.19974,4.04117v1.18895h-1.928Z"/>
    <path class="bf7ec42d-7618-4453-8a16-b790e0444abc" d="M43.571,329.43246a4.69117,4.69117,0,0,1,1.32028-3.83021,4.93374,4.93374,0,0,1,6.234,0,4.68777,4.68777,0,0,1,1.32168,3.83021v9.13926a4.68777,4.68777,0,0,1-1.32168,3.83021,4.93374,4.93374,0,0,1-6.23395,0,4.69117,4.69117,0,0,1-1.32028-3.83021Zm6.89479-.42263a2.3779,2.3779,0,0,0-.68738-1.928,2.69938,2.69938,0,0,0-3.53891,0,2.3779,2.3779,0,0,0-.68738,1.928v9.98452a2.46016,2.46016,0,0,0,.68738,1.95457,2.78524,2.78524,0,0,0,3.53891,0,2.46016,2.46016,0,0,0,.68738-1.95457Z"/>
    <path class="bf7ec42d-7618-4453-8a16-b790e0444abc" d="M64.76252,329.43246a4.69117,4.69117,0,0,1,1.32028-3.83021,4.93374,4.93374,0,0,1,6.23395,0,4.68777,4.68777,0,0,1,1.32168,3.83021v9.13926a4.68777,4.68777,0,0,1-1.32168,3.83021,4.93374,4.93374,0,0,1-6.23395,0,4.69117,4.69117,0,0,1-1.32028-3.83021Zm6.89479-.42263a2.3779,2.3779,0,0,0-.68738-1.928,2.69938,2.69938,0,0,0-3.53891,0,2.3779,2.3779,0,0,0-.68738,1.928v9.98452a2.46016,2.46016,0,0,0,.68738,1.95457,2.78524,2.78524,0,0,0,3.53891,0,2.46016,2.46016,0,0,0,.68738-1.95457Z"/>
    <path class="bf7ec42d-7618-4453-8a16-b790e0444abc" d="M86.56179,324.757h4.01393c3.32934,0,4.57,2.16623,4.57,4.702v1.63743a4.21351,4.21351,0,0,1-4.1732,4.51689H88.54291v7.63386H86.56179Zm1.98112,9.1658h1.87493a2.50872,2.50872,0,0,0,2.74674-2.50922v-2.19209a2.45957,2.45957,0,0,0-2.72019-2.74743H88.54291Z"/>
    <path class="bf7ec42d-7618-4453-8a16-b790e0444abc" d="M106.82842,324.757h7.4215v1.82254h-5.44038v6.44561H113.617v1.71637h-4.80749v6.68312h5.52v1.82254h-7.50114Z"/>
    <path class="bf7ec42d-7618-4453-8a16-b790e0444abc" d="M129.60428,324.757c2.00766,0,4.88712.2906,4.88712,4.38486v1.453c0,2.03351-.84525,3.40758-2.53577,3.93569l2.9591,8.71663H132.854l-2.72019-8.32055h-2.24518v8.32055H125.9075V324.757Zm-1.71567,8.45257h1.95457a2.43312,2.43312,0,0,0,2.66711-2.48268v-1.74361c0-2.29756-1.77015-2.50922-2.77329-2.50922h-1.84839Z"/>
    <path class="bf7ec42d-7618-4453-8a16-b790e0444abc" d="M153.333,343.24718l-.92489-4.1208h-4.1732l-.89835,4.1208h-1.928l4.01393-18.49018h1.7967l4.04186,18.49018Zm-3.06528-14.528-1.76876,8.71663h3.61854Z"/>
    <path class="bf7ec42d-7618-4453-8a16-b790e0444abc" d="M173.20142,324.757v1.82254h-3.43273v16.66764h-1.98111V326.57954H164.38V324.757Z"/>
    <path class="bf7ec42d-7618-4453-8a16-b790e0444abc" d="M186.73253,324.757v18.49018h-1.98112V324.757Z"/>
    <path class="bf7ec42d-7618-4453-8a16-b790e0444abc" d="M203.88078,343.24718h-1.77015L198.17494,324.757h2.21863l2.58887,13.70924h.07963l2.64056-13.70924h2.0873Z"/>
    <path class="bf7ec42d-7618-4453-8a16-b790e0444abc" d="M224.96752,343.24718l-.92489-4.1208h-4.1732l-.89835,4.1208h-1.928L221.057,324.757h1.7967l4.04187,18.49018Zm-3.06528-14.528-1.76876,8.71663H223.752Z"/>
    <path class="bf7ec42d-7618-4453-8a16-b790e0444abc" d="M260.0576,329.195a3.371,3.371,0,0,0-.55466-2.00766,2.155,2.155,0,0,0-1.77015-.76632,2.21938,2.21938,0,0,0-1.61088.60774,3.06463,3.06463,0,0,0-.686,2.24518,4.28186,4.28186,0,0,0,.475,2.21862,3.02627,3.02627,0,0,0,1.453,1.00383l1.69051.60775a4.72658,4.72658,0,0,1,2.35,1.55849,4.83135,4.83135,0,0,1,.74047,3.06388v.66014a5.89032,5.89032,0,0,1-1.21549,3.96224,4.55411,4.55411,0,0,1-3.3014,1.1624,4.23032,4.23032,0,0,1-3.56545-1.453,5.72171,5.72171,0,0,1-.79356-3.06389v-.66014h1.98111v.52811a3.37474,3.37474,0,0,0,.52812,1.95457,2.30671,2.30671,0,0,0,1.82324.76632,2.405,2.405,0,0,0,2.03421-.81871,3.412,3.412,0,0,0,.52811-2.13969v-.71323a3.67309,3.67309,0,0,0-.52811-2.19278,3.15977,3.15977,0,0,0-1.5061-1.00313l-2.00766-.71323a3.57443,3.57443,0,0,1-2.29826-1.98112,6.70806,6.70806,0,0,1-.36884-2.61541v-.55465a4.38977,4.38977,0,0,1,1.32027-3.3014,4.16126,4.16126,0,0,1,3.03734-1.05692c2.53578,0,4.22629,1.63812,4.22629,4.59583v.63429H260.0576Z"/>
    <path class="bf7ec42d-7618-4453-8a16-b790e0444abc" d="M274.11682,329.43246a4.69117,4.69117,0,0,1,1.32028-3.83021,4.93374,4.93374,0,0,1,6.23395,0,4.68779,4.68779,0,0,1,1.32167,3.83021v9.13926a4.68779,4.68779,0,0,1-1.32167,3.83021,4.93374,4.93374,0,0,1-6.23395,0,4.69117,4.69117,0,0,1-1.32028-3.83021Zm6.89479-.42263a2.37787,2.37787,0,0,0-.68739-1.928,2.69937,2.69937,0,0,0-3.5389,0,2.3779,2.3779,0,0,0-.68738,1.928v9.98452a2.46016,2.46016,0,0,0,.68738,1.95457,2.78522,2.78522,0,0,0,3.5389,0,2.46013,2.46013,0,0,0,.68739-1.95457Z"/>
    <path class="bf7ec42d-7618-4453-8a16-b790e0444abc" d="M301.72671,328.74577a2.12726,2.12726,0,0,0-2.16554-2.3248c-2.08729,0-2.27171,1.79669-2.27171,2.80052v9.958a2.19934,2.19934,0,0,0,2.139,2.40374c1.03107,0,2.29826-.44917,2.29826-2.58886v-.5812h2.00766v.68668c0,2.642-1.21409,4.41141-4.38416,4.41141a3.75884,3.75884,0,0,1-4.04187-4.06772V328.50826a3.916,3.916,0,0,1,4.14665-4.01532c2.29827,0,4.19975,1.10931,4.19975,4.04117v1.18895h-1.928Z"/>
    <path class="bf7ec42d-7618-4453-8a16-b790e0444abc" d="M317.47645,324.757v18.49018h-1.98112V324.757Z"/>
    <path class="bf7ec42d-7618-4453-8a16-b790e0444abc" d="M337.24151,343.24718l-.92489-4.1208h-4.1732l-.89835,4.1208h-1.928L333.331,324.757h1.7967l4.04187,18.49018Zm-3.06528-14.528-1.76876,8.71663H336.026Z"/>
    <path class="bf7ec42d-7618-4453-8a16-b790e0444abc" d="M352.85852,324.757v16.66764h5.83717v1.82254h-7.81828V324.757Z"/>
    <path class="bf7ec42d-7618-4453-8a16-b790e0444abc" d="M370.00817,324.757h7.42151v1.82254h-5.44039v6.44561h4.80749v1.71637h-4.80749v6.68312h5.52v1.82254h-7.50114Z"/>
  </g>
  <g>
    <path class="bf7ec42d-7618-4453-8a16-b790e0444abc" d="M206.47156,152.319c.16392-15.498.17349-15.42146,14.01757-17.15268,10.609-1.32666,21.16715-3.083,31.791-4.25868,7.33154-.81135,9.70671,1.25575,9.76207,8.60954a71.23206,71.23206,0,0,1-14.127,44.01313c-3.78106,5.10062-8.77544,5.43476-13.82656,2.08653q-10.70023-7.09292-21.03969-14.72536C205.956,165.6359,206.02921,157.88757,206.47156,152.319Z"/>
    <path class="bf7ec42d-7618-4453-8a16-b790e0444abc" d="M151.14735,137.66844c10.29748,2.33517,17.73731,8.64188,24.69572,15.36225,2.5054,2.41971,1.66583,6.30875-.45251,9.27348-6.915,9.67793-13.74877,19.41921-20.897,28.92312-3.94977,5.25137-8.59878,5.54771-13.382.963a69.19625,69.19625,0,0,1-19.04986-32.11583c-1.06294-3.8479-.41818-7.61379,2.44544-9.83085C132.43881,144.10278,141.613,140.34145,151.14735,137.66844Z"/>
    <path class="bf7ec42d-7618-4453-8a16-b790e0444abc" d="M156.55785,62.82877c-2.74553,5.36031-6.831,7.08883-10.20584,9.51382-45.0353,32.36024-47.32121,96.21217-4.60854,130.08423a78.81231,78.81231,0,0,0,89.6553,5.51939c27.96846-16.80279,42.7674-50.13861,36.77672-82.8426-5.7247-31.25209-30.69082-56.54392-62.216-62.15511-7.4075-1.31846-15.19475-.45344-22.80177-.73994-1.66311-.06263-4.48844,1.43718-4.76333-1.23241-.295-2.86477,2.82513-3.79009,5.01938-4.04007a73.93925,73.93925,0,0,1,24.85063,1.50169c41.77739,9.50119,69.90495,49.75408,64.20183,91.75706-5.93645,43.72144-43.48406,74.796-87.39712,72.33026-36.05845-2.02471-68.10859-29.78-75.47023-65.357-7.79887-37.69,10.13242-76.6349,42.85212-93.02378A38.87568,38.87568,0,0,1,156.55785,62.82877Z"/>
    <path class="bf7ec42d-7618-4453-8a16-b790e0444abc" d="M201.31487,89.45192c.92467,19.56886-4.48015,18.87647-21.33012,26.86852-3.60832,1.71146-6.44778-.3208-8.13658-3.69911-4.66955-9.34108-9.24006-18.73175-13.9244-28.06534-2.16073-4.30527-.91591-7.3427,3.24142-9.32024a68.39823,68.39823,0,0,1,30.40048-6.45581c6.23135.0586,9.62108,3.48977,9.73834,9.83789C201.36549,81.94554,201.31487,85.27533,201.31487,89.45192Z"/>
    <path class="bf7ec42d-7618-4453-8a16-b790e0444abc" d="M200.01315,190.00721c0,4.03954.121,8.08349-.02657,12.11763-.26254,7.17935-3.56571,10.52193-10.59845,10.38113a67.65176,67.65176,0,0,1-24.28879-4.90854c-6.899-2.80786-8.42564-7.93836-4.08821-14.21825,6.07063-8.78928,12.34577-17.44236,18.71625-26.01788,5.39015-7.25588,12.70366-6.71178,17.72429,1.10907C200.21656,172.77736,200.38786,174.14943,200.01315,190.00721Z"/>
    <path class="bf7ec42d-7618-4453-8a16-b790e0444abc" d="M240.65546,95.24114a10.19928,10.19928,0,0,1,9.1156,4.9983,69.53831,69.53831,0,0,1,7.47408,14.51666c1.89144,5.134.54754,8.45212-5.039,9.29431-12.67872,1.91135-25.36716,3.77163-38.08,5.43643-4.55757.59683-7.07836-1.64531-7.4219-6.451-.63713-8.91263,2.02029-13.90429,9.97315-17.79324q8.63541-4.22271,17.3593-8.2635C236.17938,95.98345,238.34887,94.90857,240.65546,95.24114Z"/>
    <path class="bf7ec42d-7618-4453-8a16-b790e0444abc" d="M200.80607,137.37073c0,5.23895.21894,10.48969-.0623,15.7135-.27489,5.10558-2.88009,7.09142-7.51229,3.94914-9.25434-6.27774-18.44974-12.64942-27.51184-19.20039-4.262-3.081-3.82222-6.42671.8365-8.725,8.73459-4.309,17.56394-8.42906,26.40062-12.52688,5.15176-2.389,7.82237-.20082,8.05861,5.07457.23416,5.22877.05122,10.47622.05122,15.71547Z"/>
    <path class="bf7ec42d-7618-4453-8a16-b790e0444abc" d="M155.01877,126.75435c-6.422.093-21.45638-9.455-23.66405-15.28163-2.0101-5.30519-1.005-10.16784,2.6894-14.576,11.67239-13.92757,15.04145-18.6564,23.69713,1.56628a84.57326,84.57326,0,0,0,6.6481,13.345C170.58878,121.22486,165.62458,125.37721,155.01877,126.75435Z"/>
    <path class="bf7ec42d-7618-4453-8a16-b790e0444abc" d="M205.73156,191.35177c1.1592-4.43687-2.62827-11.34056,2.95731-13.95643,4.90909-2.299,8.42323,4.10993,12.73907,6.31346a26.24945,26.24945,0,0,1,2.952,2.00927c12.54341,8.75882,12.262,12.00713-1.65008,19.07156-.21237.10784-.42061.22388-.634.32962-13.59452,6.73709-16.513,4.87261-16.36553-10.45225C205.73954,193.714,205.73156,192.76082,205.73156,191.35177Z"/>
    <path class="bf7ec42d-7618-4453-8a16-b790e0444abc" d="M206.91153,87.09187c-.91015-16.96167,4.79728-16.74932,16.8207-10.10092,4.41993,2.444,11.0959,4.00628,11.29681,9.76059.22643,6.48563-7.29728,6.29643-11.49147,8.92a55.82918,55.82918,0,0,1-7.02989,3.44732c-7.09046,3.14821-9.45546,1.57906-9.59851-6.31729C206.8747,90.899,206.904,88.99515,206.91153,87.09187Z"/>
    <path class="bf7ec42d-7618-4453-8a16-b790e0444abc" d="M125.99038,119.31876c3.71192-.09748,15.58906,7.6923,16.44328,10.26793.76241,2.29882.22019,4.35695-1.98676,5.45756q-7.28181,3.63144-14.75024,6.8795a3.943,3.943,0,0,1-3.34943-.25292c-5.326-4.13715-2.25314-9.43495-1.67048-14.33579C121.13112,123.51332,121.7589,119.63035,125.99038,119.31876Z"/>
  </g>
</svg>
